# This file uses centimeters as units for non-parametric coordinates.

mtllib Asset_vase_carre_01.mtl
g default
v -92.829269 0.000003 81.216240
v -81.216240 0.000003 92.829269
v -82.807404 23.168743 94.420418
v -94.420418 23.168743 82.807404
v 92.829269 0.000003 81.216240
v 81.216240 0.000003 92.829269
v 82.807404 23.168743 94.420418
v 94.420418 23.168743 82.807404
v -59.358913 377.622681 -70.971931
v -70.971931 377.622681 -59.358913
v -59.358913 352.203278 -70.971931
v -70.971931 352.203278 -59.358913
v 70.971931 377.622681 -59.358913
v 59.358913 377.622681 -70.971931
v 59.358913 352.203278 -70.971931
v 70.971931 352.203278 -59.358913
v -64.757027 40.689098 76.370049
v -76.370049 40.689098 64.757027
v -64.757004 55.282234 76.370026
v -76.370026 55.282242 64.757004
v 76.370049 40.689098 64.757027
v 64.757027 40.689098 76.370049
v 76.370026 55.282242 64.757004
v 64.757004 55.282234 76.370026
v 76.370049 40.689098 -64.757027
v 64.757027 40.689098 -76.370049
v 94.420418 23.168743 -82.807404
v 82.807404 23.168743 -94.420418
v -64.757027 40.689098 -76.370049
v -76.370049 40.689098 -64.757027
v -82.807404 23.168743 -94.420418
v -94.420418 23.168743 -82.807404
v -64.757004 55.282284 -76.370026
v -76.370026 55.282284 -64.757004
v 76.370026 55.282284 -64.757004
v 64.757004 55.282284 -76.370026
v 92.829269 82.383629 81.216263
v 81.216240 82.383629 92.829269
v -81.216240 82.383629 92.829269
v -92.829269 82.383629 81.216263
v -81.216263 82.383560 -92.829269
v -92.829269 82.383575 -81.216240
v 92.829269 82.383575 -81.216240
v 81.216263 82.383560 -92.829269
v 51.359722 345.871765 36.992912
v 36.992912 345.871765 51.359722
v -36.992912 345.871765 51.359722
v -51.359722 345.871765 36.992912
v -36.992912 345.871765 -51.359722
v -51.359722 345.871765 -36.992912
v 51.359722 345.871765 -36.992912
v 36.992912 345.871765 -51.359722
v 70.971931 352.203278 59.358913
v 59.358913 352.203278 70.971931
v -59.358913 352.203278 70.971931
v -70.971931 352.203278 59.358913
v 59.358913 377.622681 70.971931
v 70.971931 377.622681 59.358913
v -70.971931 377.622681 59.358913
v -59.358913 377.622681 70.971931
v 92.829269 0.000003 -81.216240
v 81.216240 0.000003 -92.829269
v -81.216240 0.000003 -92.829269
v -92.829269 0.000003 -81.216240
v -52.608162 377.622681 40.995152
v -40.995152 377.622681 52.608162
v 40.995152 377.622681 52.608162
v 52.608162 377.622681 40.995152
v 52.608162 377.622681 -40.995152
v 40.995152 377.622681 -52.608162
v -40.995152 377.622681 -52.608162
v -52.608162 377.622681 -40.995152
v -23.228357 307.592255 11.615343
v -11.615343 307.592255 23.228357
v 23.228357 307.592255 11.615343
v 11.615343 307.592255 23.228357
v 11.615343 307.592255 -23.228357
v 23.228357 307.592255 -11.615343
v -23.228357 307.592255 -11.615343
v -11.615343 307.592255 -23.228357
vt 0.320386 0.025206
vt 0.305635 0.025137
vt 0.166301 0.041422
vt 0.152211 0.044152
vt 0.018048 0.089265
vt 0.605837 0.089620
vt 0.474532 0.044692
vt 0.460340 0.041561
vt 0.344298 0.457396
vt 0.360189 0.463135
vt 0.378462 0.473924
vt 0.386624 0.485579
vt 0.263112 0.465806
vt 0.279322 0.460721
vt 0.302619 0.455130
vt 0.320394 0.455554
vt 0.467813 0.063765
vt 0.458048 0.061188
vt 0.468013 0.087218
vt 0.446307 0.081480
vt 0.023343 0.108758
vt 0.598956 0.108041
vt 0.045528 0.124170
vt 0.580952 0.124323
vt 0.309690 0.371356
vt 0.315619 0.371735
vt 0.318522 0.387969
vt 0.305124 0.387830
vt 0.309317 0.350475
vt 0.316061 0.351245
vt 0.303851 0.335571
vt 0.324143 0.336640
vt 0.234221 0.385205
vt 0.240191 0.383784
vt 0.248033 0.398233
vt 0.234377 0.402624
vt 0.228093 0.365443
vt 0.235025 0.363829
vt 0.219835 0.351540
vt 0.239364 0.346765
vt 0.465084 0.099575
vt 0.444092 0.093775
vt 0.454754 0.123474
vt 0.443166 0.120572
vt 0.048903 0.135784
vt 0.577064 0.136333
vt 0.042196 0.165822
vt 0.578555 0.166699
vt 0.156800 0.086682
vt 0.178755 0.082545
vt 0.180813 0.095044
vt 0.159657 0.099202
vt 0.158521 0.062800
vt 0.168430 0.061266
vt 0.300846 0.067352
vt 0.323684 0.068207
vt 0.323216 0.080673
vt 0.301159 0.079685
vt 0.307925 0.044991
vt 0.318144 0.045284
vt 0.317263 0.105557
vt 0.305365 0.105512
vt 0.179761 0.121212
vt 0.168088 0.124063
vt 0.159804 0.374118
vt 0.468722 0.375030
vt 0.408087 0.351736
vt 0.388850 0.345126
vt 0.147784 0.398710
vt 0.474072 0.401209
vt 0.396386 0.364845
vt 0.390406 0.361738
vt 0.155250 0.422461
vt 0.463415 0.422624
vt 0.390352 0.384842
vt 0.384697 0.382105
vt 0.176728 0.432631
vt 0.444284 0.432429
vt 0.388250 0.401426
vt 0.375136 0.396408
vt 0.451818 0.444329
vt 0.519407 0.871115
vt 0.245306 0.478385
vt 0.472919 0.431299
vt 0.486310 0.406319
vt 0.485967 0.379857
vt 0.591448 0.171617
vt 0.591382 0.140754
vt 0.594108 0.131360
vt 0.610049 0.114793
vt 0.514817 0.735480
vt 0.619159 0.096310
vt 0.526106 0.914250
vt 0.507511 0.908302
vt 0.538376 0.907928
vt 0.544324 0.889334
vt 0.538002 0.877064
vt 0.507138 0.877436
vt 0.501189 0.896032
vt 0.516313 0.579200
vt 0.652710 0.580428
vt 0.506438 0.588886
vt 0.505107 0.725675
vt 0.651229 0.736362
vt 0.661065 0.726746
vt 0.662368 0.590276
vn 0.000000 -1.000000 0.000000
vn 0.000000 -1.000000 0.000000
vn 0.000000 -1.000000 0.000000
vn 0.000000 -1.000000 0.000000
vn 0.000000 1.000000 0.000000
vn 0.000000 1.000000 0.000000
vn 0.000000 1.000000 0.000000
vn 0.000000 1.000000 0.000000
vn -0.995347 -0.072700 0.063240
vn -0.063240 -0.072700 0.995347
vn -0.068576 -0.073041 0.994969
vn -0.994969 -0.073040 0.068576
vn -0.654612 0.752186 0.075487
vn -0.075487 0.752186 0.654613
vn -0.036133 0.734912 0.677199
vn -0.677199 0.734912 0.036133
vn 0.063240 -0.072700 0.995347
vn 0.995347 -0.072700 0.063240
vn 0.994969 -0.073040 0.068576
vn 0.068576 -0.073041 0.994969
vn 0.075487 0.752186 0.654613
vn 0.654612 0.752186 0.075487
vn 0.677199 0.734912 0.036133
vn 0.036133 0.734912 0.677199
vn 0.000000 1.000000 -0.000001
vn 0.000000 1.000000 0.000000
vn 0.000000 1.000000 0.000000
vn 0.000000 1.000000 -0.000001
vn -0.996054 0.000000 -0.088752
vn -0.088753 0.000000 -0.996054
vn -0.088753 0.000000 -0.996054
vn -0.996054 0.000000 -0.088752
vn -0.247713 -0.967180 -0.056582
vn -0.056582 -0.967180 -0.247713
vn -0.022197 -0.958528 -0.284133
vn -0.284133 -0.958528 -0.022197
vn 0.000000 1.000000 0.000000
vn 0.000000 1.000000 -0.000001
vn 0.000000 1.000000 -0.000001
vn 0.000000 1.000000 0.000000
vn 0.088753 0.000000 -0.996054
vn 0.996054 0.000000 -0.088752
vn 0.996054 0.000000 -0.088752
vn 0.088753 0.000000 -0.996054
vn 0.056582 -0.967180 -0.247713
vn 0.247713 -0.967180 -0.056582
vn 0.284133 -0.958528 -0.022197
vn 0.022197 -0.958528 -0.284133
vn -0.996632 0.000001 0.082010
vn -0.082011 0.000002 0.996632
vn -0.082011 0.000002 0.996632
vn -0.996632 0.000001 0.082010
vn -0.840439 -0.539749 0.048298
vn -0.048298 -0.539749 0.840440
vn -0.085013 -0.554421 0.827883
vn -0.827883 -0.554421 0.085013
vn 0.082011 0.000002 0.996632
vn 0.996632 0.000001 0.082010
vn 0.996632 0.000001 0.082010
vn 0.082011 0.000002 0.996632
vn 0.048298 -0.539749 0.840440
vn 0.840439 -0.539749 0.048298
vn 0.827883 -0.554422 0.085013
vn 0.085013 -0.554421 0.827883
vn 0.996632 0.000001 -0.082011
vn 0.082011 0.000002 -0.996632
vn 0.082010 0.000002 -0.996632
vn 0.996632 0.000001 -0.082011
vn 0.036133 0.734912 -0.677199
vn 0.677199 0.734912 -0.036133
vn 0.654612 0.752186 -0.075487
vn 0.075487 0.752186 -0.654612
vn 0.068576 -0.073041 -0.994969
vn 0.994969 -0.073040 -0.068576
vn 0.995347 -0.072700 -0.063240
vn 0.063240 -0.072700 -0.995347
vn -0.082011 0.000002 -0.996632
vn -0.996632 0.000001 -0.082011
vn -0.996632 0.000001 -0.082011
vn -0.082010 0.000002 -0.996632
vn -0.677199 0.734912 -0.036133
vn -0.036133 0.734912 -0.677199
vn -0.075487 0.752186 -0.654613
vn -0.654612 0.752186 -0.075487
vn -0.994969 -0.073040 -0.068576
vn -0.068576 -0.073041 -0.994969
vn -0.063240 -0.072700 -0.995347
vn -0.995347 -0.072700 -0.063240
vn -0.048298 -0.539751 -0.840439
vn -0.840439 -0.539750 -0.048297
vn -0.827883 -0.554422 -0.085013
vn -0.085013 -0.554423 -0.827882
vn 0.840439 -0.539750 -0.048297
vn 0.048298 -0.539751 -0.840439
vn 0.085013 -0.554423 -0.827882
vn 0.827883 -0.554422 -0.085013
vn 0.107473 0.172150 0.979191
vn 0.979191 0.172150 0.107473
vn 0.981582 0.169332 0.088445
vn 0.088445 0.169333 0.981582
vn -0.979191 0.172150 0.107473
vn -0.107473 0.172150 0.979191
vn -0.088445 0.169333 0.981582
vn -0.981582 0.169333 0.088445
vn -0.107473 0.172150 -0.979191
vn -0.979191 0.172150 -0.107473
vn -0.981582 0.169332 -0.088445
vn -0.088445 0.169332 -0.981582
vn 0.979191 0.172150 -0.107473
vn 0.107473 0.172150 -0.979191
vn 0.088445 0.169333 -0.981582
vn 0.981582 0.169332 -0.088445
vn 0.022197 -0.958528 0.284134
vn 0.284133 -0.958528 0.022197
vn 0.247713 -0.967180 0.056582
vn 0.056582 -0.967180 0.247714
vn -0.284133 -0.958528 0.022197
vn -0.022197 -0.958528 0.284134
vn -0.056582 -0.967180 0.247714
vn -0.247713 -0.967180 0.056582
vn 0.088753 0.000000 0.996054
vn 0.996054 0.000000 0.088752
vn 0.996054 0.000000 0.088752
vn 0.088753 0.000000 0.996054
vn -0.996054 0.000000 0.088752
vn -0.088753 0.000000 0.996054
vn -0.088753 0.000000 0.996054
vn -0.996054 0.000000 0.088752
vn 0.000000 1.000000 0.000001
vn 0.000000 1.000000 0.000000
vn 0.000000 1.000000 0.000000
vn 0.000000 1.000000 0.000001
vn 0.000000 1.000000 -0.000000
vn 0.000000 1.000000 0.000001
vn 0.000000 1.000000 0.000001
vn 0.000000 1.000000 -0.000000
vn 0.872440 0.447975 -0.195364
vn 0.195365 0.447975 -0.872440
vn 0.135277 0.431031 -0.892139
vn 0.892139 0.431031 -0.135277
vn -0.195365 0.447975 -0.872440
vn -0.872440 0.447975 -0.195364
vn -0.892139 0.431031 -0.135277
vn -0.135277 0.431031 -0.892139
vn -0.872440 0.447975 0.195364
vn -0.195365 0.447975 0.872440
vn -0.135277 0.431031 0.892139
vn -0.892139 0.431031 0.135277
vn 0.195365 0.447975 0.872440
vn 0.872440 0.447975 0.195364
vn 0.892139 0.431031 0.135277
vn 0.135277 0.431031 0.892139
vn -0.082011 0.000002 0.996632
vn 0.082011 0.000002 0.996632
vn 0.082011 0.000002 0.996632
vn -0.082011 0.000002 0.996632
vn -0.082010 0.000002 -0.996632
vn 0.082010 0.000002 -0.996632
vn 0.082011 0.000002 -0.996632
vn -0.082011 0.000002 -0.996632
vn 0.996632 0.000001 0.082010
vn 0.996632 0.000001 -0.082011
vn 0.996632 0.000001 -0.082011
vn 0.996632 0.000001 0.082010
vn -0.996632 0.000001 -0.082011
vn -0.996632 0.000001 0.082010
vn -0.996632 0.000001 0.082010
vn -0.996632 0.000001 -0.082011
vn -0.075487 0.752186 0.654613
vn 0.075487 0.752186 0.654613
vn 0.036133 0.734912 0.677199
vn -0.036133 0.734912 0.677199
vn 0.654612 0.752186 0.075487
vn 0.654612 0.752186 -0.075487
vn 0.677199 0.734912 -0.036133
vn 0.677199 0.734912 0.036133
vn -0.036133 0.734912 -0.677199
vn 0.036133 0.734912 -0.677199
vn 0.075487 0.752186 -0.654612
vn -0.075487 0.752186 -0.654613
vn -0.654612 0.752186 -0.075487
vn -0.654612 0.752186 0.075487
vn -0.677199 0.734912 0.036133
vn -0.677199 0.734912 -0.036133
vn -0.085013 -0.554423 -0.827882
vn 0.085013 -0.554423 -0.827882
vn 0.048298 -0.539751 -0.840439
vn -0.048298 -0.539751 -0.840439
vn 0.840439 -0.539749 0.048298
vn 0.840439 -0.539750 -0.048297
vn 0.827883 -0.554422 -0.085013
vn 0.827883 -0.554422 0.085013
vn -0.048298 -0.539749 0.840440
vn 0.048298 -0.539749 0.840440
vn 0.085013 -0.554421 0.827883
vn -0.085013 -0.554421 0.827883
vn -0.840439 -0.539750 -0.048297
vn -0.840439 -0.539749 0.048298
vn -0.827883 -0.554421 0.085013
vn -0.827883 -0.554422 -0.085013
vn -0.088445 0.169332 -0.981582
vn 0.088445 0.169333 -0.981582
vn 0.107473 0.172150 -0.979191
vn -0.107473 0.172150 -0.979191
vn 0.979191 0.172150 0.107473
vn 0.979191 0.172150 -0.107473
vn 0.981582 0.169332 -0.088445
vn 0.981582 0.169332 0.088445
vn -0.107473 0.172150 0.979191
vn 0.107473 0.172150 0.979191
vn 0.088445 0.169333 0.981582
vn -0.088445 0.169333 0.981582
vn -0.979191 0.172150 -0.107473
vn -0.979191 0.172150 0.107473
vn -0.981582 0.169333 0.088445
vn -0.981582 0.169332 -0.088445
vn -0.056582 -0.967180 -0.247713
vn 0.056582 -0.967180 -0.247713
vn 0.022197 -0.958528 -0.284133
vn -0.022197 -0.958528 -0.284133
vn 0.284133 -0.958528 0.022197
vn 0.284133 -0.958528 -0.022197
vn 0.247713 -0.967180 -0.056582
vn 0.247713 -0.967180 0.056582
vn -0.022197 -0.958528 0.284134
vn 0.022197 -0.958528 0.284134
vn 0.056582 -0.967180 0.247714
vn -0.056582 -0.967180 0.247714
vn -0.284133 -0.958528 -0.022197
vn -0.284133 -0.958528 0.022197
vn -0.247713 -0.967180 0.056582
vn -0.247713 -0.967180 -0.056582
vn -0.088753 0.000000 -0.996054
vn 0.088753 0.000000 -0.996054
vn 0.088753 0.000000 -0.996054
vn -0.088753 0.000000 -0.996054
vn 0.996054 0.000000 0.088752
vn 0.996054 0.000000 -0.088752
vn 0.996054 0.000000 -0.088752
vn 0.996054 0.000000 0.088752
vn -0.088753 0.000000 0.996054
vn 0.088753 0.000000 0.996054
vn 0.088753 0.000000 0.996054
vn -0.088753 0.000000 0.996054
vn -0.996054 0.000000 -0.088752
vn -0.996054 0.000000 0.088752
vn -0.996054 0.000000 0.088752
vn -0.996054 0.000000 -0.088752
vn -0.068576 -0.073041 0.994969
vn -0.063240 -0.072700 0.995347
vn 0.063240 -0.072700 0.995347
vn 0.068576 -0.073041 0.994969
vn 0.994969 -0.073040 0.068576
vn 0.995347 -0.072700 0.063240
vn 0.995347 -0.072700 -0.063240
vn 0.994969 -0.073040 -0.068576
vn -0.068576 -0.073041 -0.994969
vn 0.068576 -0.073041 -0.994969
vn 0.063240 -0.072700 -0.995347
vn -0.063240 -0.072700 -0.995347
vn -0.994969 -0.073040 -0.068576
vn -0.995347 -0.072700 -0.063240
vn -0.995347 -0.072700 0.063240
vn -0.994969 -0.073040 0.068576
vn 0.000000 1.000000 0.000001
vn 0.000000 1.000000 0.000001
vn 0.000000 1.000000 0.000001
vn 0.000000 1.000000 0.000001
vn 0.000000 1.000000 0.000000
vn 0.000000 1.000000 0.000000
vn 0.000000 1.000000 0.000000
vn 0.000000 1.000000 0.000000
vn 0.000000 1.000000 -0.000001
vn 0.000000 1.000000 -0.000001
vn 0.000000 1.000000 -0.000001
vn 0.000000 1.000000 -0.000001
vn 0.000000 1.000000 0.000000
vn 0.000000 1.000000 -0.000000
vn 0.000000 1.000000 -0.000000
vn 0.000000 1.000000 0.000000
vn 0.195365 0.447975 -0.872440
vn -0.195365 0.447975 -0.872440
vn -0.135277 0.431031 -0.892139
vn 0.135277 0.431031 -0.892139
vn -0.872440 0.447975 -0.195364
vn -0.872440 0.447975 0.195364
vn -0.892139 0.431031 0.135277
vn -0.892139 0.431031 -0.135277
vn -0.195365 0.447975 0.872440
vn 0.195365 0.447975 0.872440
vn 0.135277 0.431031 0.892139
vn -0.135277 0.431031 0.892139
vn 0.872440 0.447975 0.195364
vn 0.872440 0.447975 -0.195364
vn 0.892139 0.431031 -0.135277
vn 0.892139 0.431031 0.135277
vn 0.000000 -1.000000 0.000000
vn 0.000000 -1.000000 0.000000
vn 0.000000 -1.000000 0.000000
vn 0.000000 -1.000000 0.000000
vn 0.000000 -1.000000 0.000000
vn 0.000000 -1.000000 0.000000
vn 0.000000 -1.000000 0.000000
vn 0.000000 -1.000000 0.000000
vn 0.000000 1.000000 0.000000
vn 0.000000 1.000000 0.000000
vn 0.000000 1.000000 0.000000
vn 0.000000 1.000000 0.000000
vn 0.000000 1.000000 0.000000
vn 0.000000 1.000000 0.000000
vn 0.000000 1.000000 0.000000
vn 0.000000 1.000000 0.000000
s off
g Vase_carre_01
usemtl Vase_carre_01SG
f 2/102/1 63/106/2 62/105/3 6/103/4
f 80/95/5 74/99/6 76/98/7 77/96/8
f 1/8/9 2/7/10 3/17/11 4/18/12
f 4/18/13 3/17/14 17/19/15 18/20/16
f 6/6/17 5/92/18 8/90/19 7/22/20
f 7/22/21 8/90/22 21/89/23 22/24/24
f 9/25/25 10/26/26 72/27/27 71/28/28
f 10/26/29 9/25/30 11/29/31 12/30/32
f 12/30/33 11/29/34 49/31/35 50/32/36
f 13/33/37 14/34/38 70/35/39 69/36/40
f 14/34/41 13/33/42 16/37/43 15/38/44
f 15/38/45 16/37/46 51/39/47 52/40/48
f 18/20/49 17/19/50 19/41/51 20/42/52
f 20/42/53 19/41/54 39/43/55 40/44/56
f 22/24/57 21/89/58 23/88/59 24/46/60
f 24/46/61 23/88/62 37/87/63 38/48/64
f 25/49/65 26/50/66 36/51/67 35/52/68
f 26/50/69 25/49/70 27/53/71 28/54/72
f 28/54/73 27/53/74 61/4/75 62/3/76
f 29/55/77 30/56/78 34/57/79 33/58/80
f 30/56/81 29/55/82 31/59/83 32/60/84
f 32/60/85 31/59/86 63/2/87 64/1/88
f 33/58/89 34/57/90 42/61/91 41/62/92
f 35/52/93 36/51/94 44/63/95 43/64/96
f 38/48/97 37/87/98 45/86/99 46/66/100
f 40/44/101 39/43/102 47/67/103 48/68/104
f 41/62/105 42/61/106 50/32/107 49/31/108
f 43/64/109 44/63/110 52/40/111 51/39/112
f 46/66/113 45/86/114 53/85/115 54/70/116
f 48/68/117 47/67/118 55/71/119 56/72/120
f 54/70/121 53/85/122 58/84/123 57/74/124
f 56/72/125 55/71/126 60/75/127 59/76/128
f 57/74/129 58/84/130 68/81/131 67/78/132
f 59/76/133 60/75/134 66/79/135 65/80/136
f 65/80/137 66/79/138 74/10/139 73/9/140
f 67/78/141 68/81/142 75/12/143 76/11/144
f 69/36/145 70/35/146 77/14/147 78/13/148
f 71/28/149 72/27/150 79/16/151 80/15/152
f 17/19/153 22/24/154 24/46/155 19/41/156
f 33/58/157 36/51/158 26/50/159 29/55/160
f 21/23/161 25/49/162 35/52/163 23/45/164
f 30/56/165 18/20/166 20/42/167 34/57/168
f 3/17/169 7/22/170 22/24/171 17/19/172
f 8/21/173 27/53/174 25/49/175 21/23/176
f 29/55/177 26/50/178 28/54/179 31/59/180
f 32/60/181 4/18/182 18/20/183 30/56/184
f 41/62/185 44/63/186 36/51/187 33/58/188
f 23/45/189 35/52/190 43/64/191 37/47/192
f 19/41/193 24/46/194 38/48/195 39/43/196
f 34/57/197 20/42/198 40/44/199 42/61/200
f 49/31/201 52/40/202 44/63/203 41/62/204
f 37/47/205 43/64/206 51/39/207 45/65/208
f 39/43/209 38/48/210 46/66/211 47/67/212
f 42/61/213 40/44/214 48/68/215 50/32/216
f 11/29/217 15/38/218 52/40/219 49/31/220
f 45/65/221 51/39/222 16/37/223 53/69/224
f 47/67/225 46/66/226 54/70/227 55/71/228
f 50/32/229 48/68/230 56/72/231 12/30/232
f 9/25/233 14/34/234 15/38/235 11/29/236
f 53/69/237 16/37/238 13/33/239 58/73/240
f 55/71/241 54/70/242 57/74/243 60/75/244
f 12/30/245 56/72/246 59/76/247 10/26/248
f 3/17/249 2/7/250 6/6/251 7/22/252
f 8/21/253 5/5/254 61/4/255 27/53/256
f 31/59/257 28/54/258 62/3/259 63/2/260
f 32/60/261 64/1/262 1/8/263 4/18/264
f 60/75/265 57/74/266 67/78/267 66/79/268
f 58/73/269 13/33/270 69/36/271 68/77/272
f 14/34/273 9/25/274 71/28/275 70/35/276
f 10/26/277 59/76/278 65/80/279 72/27/280
f 66/79/281 67/78/282 76/11/283 74/10/284
f 68/77/285 69/36/286 78/13/287 75/83/288
f 70/35/289 71/28/290 80/15/291 77/14/292
f 72/27/293 65/80/294 73/9/295 79/16/296
f 6/103/297 62/105/298 61/104/299 5/91/300
f 64/101/301 63/106/302 2/102/303 1/100/304
f 77/96/305 76/98/306 75/82/307 78/97/308
f 73/94/309 74/99/310 80/95/311 79/93/312
