# This file uses centimeters as units for non-parametric coordinates.

mtllib Asset_vase_long_02.mtl
g default
v 28.421810 -0.000004 -18.933847
v 16.409334 -0.000004 -32.794395
v 0.000000 -0.000004 -37.867695
v -16.409334 -0.000004 -32.794395
v -28.421810 -0.000004 -18.933847
v -32.818668 -0.000004 0.000000
v -28.421810 -0.000004 18.933847
v -16.409334 -0.000004 32.794395
v 0.000000 -0.000004 37.867695
v 16.409334 -0.000004 32.794395
v 28.421810 -0.000004 18.933847
v 32.818668 -0.000004 0.000000
v 37.570267 349.689392 -25.028313
v 21.691204 349.689392 -43.350311
v 0.000000 349.689392 -50.056625
v -21.691204 349.689392 -43.350311
v -37.570267 349.689392 -25.028313
v -43.382408 349.689392 0.000000
v -37.570267 349.689392 25.028313
v -21.691204 349.689392 43.350311
v 0.000000 349.689392 50.056625
v 21.691204 349.689392 43.350311
v 37.570267 349.689392 25.028313
v 43.382408 349.689392 0.000000
v 0.000000 -0.000004 0.000000
v 22.304876 293.145416 -14.858917
v 12.877728 293.145416 -25.736397
v 0.000000 293.145416 -29.717834
v -12.877728 293.145416 -25.736397
v -22.304876 293.145416 -14.858917
v -25.755457 293.145416 0.000000
v -22.304876 293.145416 14.858917
v -12.877728 293.145416 25.736397
v 0.000000 293.145416 29.717834
v 12.877728 293.145416 25.736397
v 22.304876 293.145416 14.858917
v 25.755457 293.145416 0.000000
v 67.544174 182.171448 -44.996136
v 38.996647 182.171432 -77.935593
v 0.000000 182.171432 -89.992264
v -38.996647 182.171432 -77.935593
v -67.544174 182.171432 -44.996132
v -77.993294 182.171432 0.000000
v -67.544174 182.171432 44.996132
v -38.996647 182.171432 77.935593
v 0.000000 182.171432 89.992264
v 38.996647 182.171432 77.935593
v 67.544174 182.171432 44.996132
v 77.993294 182.171432 0.000000
v 18.333141 242.895096 -12.213047
v 21.169277 242.895081 0.000000
v 18.333139 242.895081 12.213045
v 10.584639 242.895081 21.153622
v 0.000000 242.895081 24.426090
v -10.584639 242.895081 21.153622
v -18.333139 242.895081 12.213045
v -21.169277 242.895081 0.000000
v -18.333139 242.895081 -12.213045
v -10.584639 242.895081 -21.153622
v 0.000000 242.895081 -24.426090
v 10.584639 242.895081 -21.153622
v 27.737108 330.374237 -18.477728
v 32.028061 330.374237 0.000000
v 27.737108 330.374237 18.477726
v 16.014030 330.374237 32.004356
v 0.000000 330.374237 36.955456
v -16.014030 330.374237 32.004356
v -27.737108 330.374237 18.477726
v -32.028061 330.374237 0.000000
v -27.737108 330.374237 -18.477726
v -16.014030 330.374237 -32.004356
v 0.000000 330.374237 -36.955456
v 16.014030 330.374237 -32.004356
v 63.202904 34.579079 -42.104107
v 36.490211 34.579060 -72.926430
v 0.000000 34.579060 -84.208183
v -36.490211 34.579060 -72.926430
v -63.202904 34.579060 -42.104092
v -72.980423 34.579060 0.000000
v -63.202904 34.579060 42.104092
v -36.490211 34.579060 72.926430
v 0.000000 34.579060 84.208183
v 36.490211 34.579060 72.926430
v 63.202904 34.579060 42.104092
v 72.980423 34.579060 0.000000
v 32.237743 349.689392 -21.475931
v 18.612473 349.689392 -37.197395
v 0.000000 349.689392 -42.951862
v -18.612473 349.689392 -37.197395
v -32.237743 349.689392 -21.475931
v -37.224945 349.689392 0.000000
v -32.237743 349.689392 21.475931
v -18.612473 349.689392 37.197395
v 0.000000 349.689392 42.951862
v 18.612473 349.689392 37.197395
v 32.237743 349.689392 21.475931
v 37.224945 349.689392 0.000000
v 14.181405 315.341125 -9.447216
v 8.187588 315.341125 -16.363159
v 0.000000 298.512604 0.000000
v 0.000000 315.341125 -18.894432
v -8.187588 315.341125 -16.363159
v -14.181405 315.341125 -9.447216
v -16.375175 315.341125 0.000000
v -14.181405 315.341125 9.447216
v -8.187588 315.341125 16.363159
v 0.000000 315.341125 18.894432
v 8.187588 315.341125 16.363159
v 14.181405 315.341125 9.447216
v 16.375175 315.341125 0.000000
v 102.397911 121.636108 -57.376904
v 103.018341 101.733635 -57.724560
v 118.955330 101.733627 0.000000
v 118.238907 121.636093 0.000000
v 103.018341 101.733627 57.724548
v 102.397903 121.636093 57.376896
v 59.477665 101.733627 99.981857
v 59.119453 121.636093 99.379700
v 0.000000 101.733627 115.449097
v 0.000000 121.636093 114.753792
v -59.477665 101.733627 99.981857
v -59.119453 121.636093 99.379700
v -103.018341 101.733627 57.724548
v -102.397903 121.636093 57.376896
v -118.955330 101.733627 0.000000
v -118.238907 121.636093 0.000000
v -103.018341 101.733627 -57.724548
v -102.397903 121.636093 -57.376896
v -59.477665 101.733627 -99.981857
v -59.119453 121.636093 -99.379700
v 0.000000 101.733627 -115.449097
v 0.000000 121.636093 -114.753792
v 59.477665 101.733627 -99.981857
v 59.119453 121.636093 -99.379700
vt 0.175550 0.849716
vt 0.189548 0.847756
vt 0.190249 0.882162
vt 0.174959 0.886663
vt 0.203427 0.845814
vt 0.204556 0.878426
vt 0.217946 0.844249
vt 0.219025 0.876166
vt 0.233785 0.843095
vt 0.234352 0.874652
vt 0.250744 0.842787
vt 0.250528 0.874341
vt 0.267697 0.843306
vt 0.266698 0.874853
vt 0.283518 0.844659
vt 0.282005 0.876561
vt 0.298013 0.846409
vt 0.296443 0.879005
vt 0.311863 0.848530
vt 0.310700 0.882926
vt 0.325830 0.850680
vt 0.325928 0.887629
vt 0.339692 0.852308
vt 0.158744 0.890762
vt 0.153419 0.535569
vt 0.133543 0.529052
vt 0.064690 0.935793
vt 0.175429 0.537976
vt 0.198759 0.540166
vt 0.224838 0.541021
vt 0.252469 0.542788
vt 0.280108 0.541363
vt 0.306168 0.540827
vt 0.329480 0.538911
vt 0.351467 0.536746
vt 0.371359 0.530435
vt 0.119006 0.517775
vt 0.204680 0.944382
vt 0.212693 0.940407
vt 0.146356 0.953361
vt 0.221266 0.937965
vt 0.230172 0.935794
vt 0.239892 0.934466
vt 0.250156 0.933599
vt 0.260407 0.934593
vt 0.270107 0.936042
vt 0.278984 0.938322
vt 0.287524 0.940873
vt 0.295485 0.944950
vt 0.302035 0.950729
vt 0.099937 0.732531
vt 0.131998 0.724491
vt 0.182989 0.801234
vt 0.169038 0.803676
vt 0.161161 0.720715
vt 0.197873 0.800174
vt 0.189693 0.722303
vt 0.213809 0.799069
vt 0.219775 0.725275
vt 0.231751 0.798456
vt 0.251451 0.728017
vt 0.251064 0.797740
vt 0.283158 0.725661
vt 0.270370 0.798692
vt 0.313276 0.723046
vt 0.288310 0.799523
vt 0.341858 0.721789
vt 0.304242 0.800821
vt 0.371029 0.725885
vt 0.319123 0.802063
vt 0.403032 0.734271
vt 0.333054 0.804678
vt 0.438840 0.750715
vt 0.157098 0.807883
vt 0.179893 0.907168
vt 0.161483 0.916632
vt 0.320731 0.908061
vt 0.305978 0.901926
vt 0.292816 0.898158
vt 0.280032 0.895266
vt 0.265864 0.893648
vt 0.250408 0.892820
vt 0.234942 0.893456
vt 0.220754 0.894896
vt 0.207935 0.897626
vt 0.194724 0.901224
vt 0.130562 0.583028
vt 0.099866 0.571839
vt 0.159356 0.588953
vt 0.187932 0.588482
vt 0.218899 0.586216
vt 0.252227 0.583932
vt 0.285532 0.586629
vt 0.316463 0.589269
vt 0.345001 0.590066
vt 0.373803 0.584450
vt 0.404577 0.573580
vt 0.067574 0.551687
vt 0.195943 0.906769
vt 0.181604 0.912720
vt 0.209145 0.903035
vt 0.222070 0.900257
vt 0.235797 0.898737
vt 0.250373 0.898179
vt 0.264941 0.898918
vt 0.278649 0.900610
vt 0.291536 0.903551
vt 0.304689 0.907453
vt 0.318949 0.913590
vt 0.165874 0.922356
vt 0.071287 0.664865
vt 0.071276 0.645414
vt 0.112057 0.648340
vt 0.112789 0.666028
vt 0.025837 0.664932
vt 0.478096 0.642058
vt 0.432117 0.666882
vt 0.432705 0.647457
vt 0.390905 0.667650
vt 0.391603 0.649927
vt 0.353096 0.668257
vt 0.353746 0.650939
vt 0.317061 0.668105
vt 0.317744 0.651470
vt 0.283946 0.667880
vt 0.284201 0.651427
vt 0.251737 0.667395
vt 0.251904 0.651757
vt 0.219617 0.667503
vt 0.219519 0.651060
vt 0.186388 0.667323
vt 0.186097 0.650647
vt 0.150439 0.667025
vt 0.150033 0.649705
vt 0.064088 0.748654
vt 0.478206 0.667121
vt 0.436912 0.553682
vt 0.025286 0.639888
vt 0.334555 0.923428
vt 0.339015 0.917763
vt 0.059603 0.962903
vt 0.385984 0.519298
vt 0.342084 0.891944
vt 0.161666 0.851127
vt 0.344931 0.809060
vt 0.075924 0.962205
vt 0.044645 0.956336
vt 0.035058 0.944265
vt 0.033410 0.929925
vt 0.040144 0.917157
vt 0.053454 0.909382
vt 0.069776 0.908685
vt 0.084734 0.915251
vt 0.094321 0.927322
vt 0.095969 0.941662
vt 0.089235 0.954431
vt 0.153185 0.937964
vt 0.198057 0.950078
vt 0.160797 0.943972
vt 0.143621 0.936354
vt 0.135042 0.939399
vt 0.129595 0.945928
vt 0.128412 0.954347
vt 0.131914 0.962750
vt 0.139526 0.968759
vt 0.149090 0.970368
vt 0.157669 0.967324
vt 0.163116 0.960795
vt 0.164299 0.952375
vn 0.886738 -0.131921 -0.443050
vn 0.549402 -0.141651 -0.823464
vn 0.518508 -0.362148 -0.774596
vn 0.842340 -0.338392 -0.419468
vn -0.000000 -0.147415 -0.989075
vn -0.000000 -0.376140 -0.926563
vn -0.549402 -0.141651 -0.823464
vn -0.518508 -0.362148 -0.774596
vn -0.886738 -0.131920 -0.443050
vn -0.842340 -0.338392 -0.419468
vn -0.991805 -0.127761 0.000000
vn -0.944608 -0.328202 -0.000000
vn -0.886738 -0.131920 0.443050
vn -0.842340 -0.338392 0.419468
vn -0.549402 -0.141651 0.823464
vn -0.518508 -0.362148 0.774596
vn 0.000000 -0.147415 0.989075
vn 0.000000 -0.376140 0.926563
vn 0.549402 -0.141651 0.823464
vn 0.518508 -0.362148 0.774596
vn 0.886738 -0.131920 0.443050
vn 0.842340 -0.338392 0.419468
vn 0.991805 -0.127761 -0.000000
vn 0.944608 -0.328202 0.000000
vn 0.311072 -0.835540 -0.452888
vn 0.516426 -0.818904 -0.250403
vn 0.000000 -1.000000 -0.000000
vn 0.000000 -0.844779 -0.535115
vn -0.311072 -0.835540 -0.452888
vn -0.516426 -0.818904 -0.250403
vn -0.584491 -0.811400 0.000000
vn -0.516426 -0.818904 0.250403
vn -0.311072 -0.835540 0.452888
vn 0.000000 -0.844779 0.535115
vn 0.311072 -0.835540 0.452888
vn 0.516426 -0.818904 0.250403
vn 0.584491 -0.811400 -0.000000
vn -0.746048 0.555338 0.367441
vn -0.455887 0.581868 0.673496
vn 0.000000 1.000000 -0.000000
vn 0.000000 0.597055 0.802201
vn 0.455887 0.581868 0.673496
vn 0.746048 0.555338 0.367441
vn 0.839309 0.543655 0.000000
vn 0.746048 0.555338 -0.367441
vn 0.455887 0.581868 -0.673496
vn 0.000000 0.597055 -0.802201
vn -0.455887 0.581868 -0.673496
vn -0.746048 0.555338 -0.367441
vn -0.839309 0.543655 0.000000
vn 0.714388 0.578345 -0.393913
vn 0.433146 0.543669 -0.718894
vn 0.452619 0.594394 -0.664704
vn 0.740855 0.565393 -0.362580
vn 0.000000 0.524923 -0.851150
vn 0.000000 0.611161 -0.791506
vn -0.433146 0.543669 -0.718894
vn -0.452619 0.594394 -0.664704
vn -0.714388 0.578345 -0.393913
vn -0.740855 0.565393 -0.362580
vn -0.804329 0.594184 0.000000
vn -0.833331 0.552775 0.000000
vn -0.714388 0.578345 0.393913
vn -0.740855 0.565393 0.362580
vn -0.433146 0.543669 0.718894
vn -0.452619 0.594394 0.664704
vn 0.000000 0.524923 0.851150
vn -0.000000 0.611161 0.791506
vn 0.433146 0.543669 0.718894
vn 0.452619 0.594394 0.664704
vn 0.714388 0.578345 0.393913
vn 0.740855 0.565393 0.362580
vn 0.804329 0.594184 0.000000
vn 0.833331 0.552775 -0.000000
vn 0.855810 -0.273334 -0.439178
vn 0.964549 -0.263905 -0.000000
vn 0.855810 -0.273334 0.439178
vn 0.519994 -0.294701 0.801721
vn 0.000000 -0.306863 0.951754
vn -0.519994 -0.294701 0.801722
vn -0.855810 -0.273334 0.439178
vn -0.964549 -0.263905 0.000000
vn -0.855810 -0.273334 -0.439178
vn -0.519994 -0.294701 -0.801721
vn 0.000000 -0.306863 -0.951754
vn 0.519994 -0.294701 -0.801722
vn 0.425801 -0.557729 -0.712483
vn 0.703154 -0.593800 -0.391122
vn 0.000000 -0.537990 -0.842952
vn -0.425801 -0.557729 -0.712483
vn -0.703154 -0.593800 -0.391122
vn -0.792281 -0.610157 0.000000
vn -0.703154 -0.593800 0.391122
vn -0.425801 -0.557729 0.712483
vn 0.000000 -0.537990 0.842952
vn 0.425801 -0.557729 0.712483
vn 0.703154 -0.593800 0.391122
vn 0.792281 -0.610157 -0.000000
vn -0.372327 0.728962 0.574445
vn -0.635961 0.699219 0.326569
vn 0.000000 0.744717 0.667381
vn 0.372327 0.728962 0.574445
vn 0.635961 0.699219 0.326569
vn 0.728352 0.685203 0.000000
vn 0.635961 0.699219 -0.326569
vn 0.372327 0.728962 -0.574445
vn 0.000000 0.744717 -0.667381
vn -0.372327 0.728962 -0.574445
vn -0.635961 0.699219 -0.326569
vn -0.728352 0.685203 -0.000000
vn 0.804492 0.397269 -0.441554
vn 0.800418 -0.405870 -0.441137
vn 0.484917 -0.350614 -0.801202
vn 0.489666 0.333715 -0.805520
vn 0.905426 0.424505 0.000000
vn 0.902840 -0.429976 -0.000000
vn 0.804492 0.397269 0.441555
vn 0.800418 -0.405870 0.441137
vn 0.489666 0.333715 0.805520
vn 0.484917 -0.350614 0.801202
vn 0.000000 0.296756 0.954953
vn 0.000000 -0.319019 0.947749
vn -0.489666 0.333715 0.805520
vn -0.484917 -0.350614 0.801202
vn -0.804492 0.397269 0.441555
vn -0.800418 -0.405870 0.441137
vn -0.905426 0.424505 0.000000
vn -0.902840 -0.429976 0.000000
vn -0.804492 0.397269 -0.441555
vn -0.800418 -0.405870 -0.441137
vn -0.489666 0.333715 -0.805520
vn -0.484917 -0.350614 -0.801202
vn 0.000000 0.296756 -0.954953
vn 0.000000 -0.319019 -0.947749
s 1
g Vase_long_02
usemtl Vase_long_02SG
f 26/1/1 27/2/2 73/3/3 62/4/4
f 27/2/2 28/5/5 72/6/6 73/3/3
f 28/5/5 29/7/7 71/8/8 72/6/6
f 29/7/7 30/9/9 70/10/10 71/8/8
f 30/9/9 31/11/11 69/12/12 70/10/10
f 31/11/11 32/13/13 68/14/14 69/12/12
f 32/13/13 33/15/15 67/16/16 68/14/14
f 33/15/15 34/17/17 66/18/18 67/16/16
f 34/17/17 35/19/19 65/20/20 66/18/18
f 35/19/19 36/21/21 64/22/22 65/20/20
f 36/21/21 37/23/23 63/143/24 64/22/22
f 37/144/23 26/1/1 62/4/4 63/24/24
f 2/156/25 1/146/26 25/27/27
f 3/155/28 2/156/25 25/27/27
f 4/154/29 3/155/28 25/27/27
f 5/153/30 4/154/29 25/27/27
f 6/152/31 5/153/30 25/27/27
f 7/151/32 6/152/31 25/27/27
f 8/150/33 7/151/32 25/27/27
f 9/149/34 8/150/33 25/27/27
f 10/148/35 9/149/34 25/27/27
f 11/147/36 10/148/35 25/27/27
f 12/141/37 11/147/36 25/27/27
f 1/146/26 12/141/37 25/27/27
f 98/159/38 99/169/39 100/40/40
f 99/169/39 101/168/41 100/40/40
f 101/168/41 102/167/42 100/40/40
f 102/167/42 103/166/43 100/40/40
f 103/166/43 104/165/44 100/40/40
f 104/165/44 105/164/45 100/40/40
f 105/164/45 106/163/46 100/40/40
f 106/163/46 107/162/47 100/40/40
f 107/162/47 108/161/48 100/40/40
f 108/161/48 109/160/49 100/40/40
f 109/160/49 110/157/50 100/40/40
f 110/157/50 98/159/38 100/40/40
f 38/51/51 39/52/52 61/53/53 50/54/54
f 39/52/52 40/55/55 60/56/56 61/53/53
f 40/55/55 41/57/57 59/58/58 60/56/56
f 41/57/57 42/59/59 58/60/60 59/58/58
f 42/59/59 43/61/61 57/62/62 58/60/60
f 43/61/61 44/63/63 56/64/64 57/62/62
f 44/63/63 45/65/65 55/66/66 56/64/64
f 45/65/65 46/67/67 54/68/68 55/66/66
f 46/67/67 47/69/69 53/70/70 54/68/68
f 47/69/69 48/71/71 52/72/72 53/70/70
f 48/71/71 49/73/73 51/145/74 52/72/72
f 49/135/73 38/51/51 50/54/54 51/74/74
f 51/74/74 50/54/54 26/1/1 37/144/23
f 52/72/72 51/145/74 37/23/23 36/21/21
f 53/70/70 52/72/72 36/21/21 35/19/19
f 54/68/68 53/70/70 35/19/19 34/17/17
f 55/66/66 54/68/68 34/17/17 33/15/15
f 56/64/64 55/66/66 33/15/15 32/13/13
f 57/62/62 56/64/64 32/13/13 31/11/11
f 58/60/60 57/62/62 31/11/11 30/9/9
f 59/58/58 58/60/60 30/9/9 29/7/7
f 60/56/56 59/58/58 29/7/7 28/5/5
f 61/53/53 60/56/56 28/5/5 27/2/2
f 26/1/1 50/54/54 61/53/53 27/2/2
f 63/24/24 62/4/4 13/75/75 24/76/76
f 64/22/22 63/143/24 24/140/76 23/77/77
f 65/20/20 64/22/22 23/77/77 22/78/78
f 66/18/18 65/20/20 22/78/78 21/79/79
f 67/16/16 66/18/18 21/79/79 20/80/80
f 68/14/14 67/16/16 20/80/80 19/81/81
f 69/12/12 68/14/14 19/81/81 18/82/82
f 70/10/10 69/12/12 18/82/82 17/83/83
f 71/8/8 70/10/10 17/83/83 16/84/84
f 72/6/6 71/8/8 16/84/84 15/85/85
f 73/3/3 72/6/6 15/85/85 14/86/86
f 62/4/4 73/3/3 14/86/86 13/75/75
f 1/26/26 2/25/25 75/87/87 74/88/88
f 2/25/25 3/28/28 76/89/89 75/87/87
f 3/28/28 4/29/29 77/90/90 76/89/89
f 4/29/29 5/30/30 78/91/91 77/90/90
f 5/30/30 6/31/31 79/92/92 78/91/91
f 6/31/31 7/32/32 80/93/93 79/92/92
f 7/32/32 8/33/33 81/94/94 80/93/93
f 8/33/33 9/34/34 82/95/95 81/94/94
f 9/34/34 10/35/35 83/96/96 82/95/95
f 10/35/35 11/36/36 84/97/97 83/96/96
f 11/36/36 12/142/37 85/137/98 84/97/97
f 12/37/37 1/26/26 74/88/88 85/98/98
f 13/75/75 14/86/86 87/99/99 86/100/100
f 14/86/86 15/85/85 88/101/101 87/99/99
f 15/85/85 16/84/84 89/102/102 88/101/101
f 16/84/84 17/83/83 90/103/103 89/102/102
f 17/83/83 18/82/82 91/104/104 90/103/103
f 18/82/82 19/81/81 92/105/105 91/104/104
f 19/81/81 20/80/80 93/106/106 92/105/105
f 20/80/80 21/79/79 94/107/107 93/106/106
f 21/79/79 22/78/78 95/108/108 94/107/107
f 22/78/78 23/77/77 96/109/109 95/108/108
f 23/77/77 24/140/76 97/139/110 96/109/109
f 24/76/76 13/75/75 86/100/100 97/110/110
f 86/100/100 87/99/99 99/39/39 98/38/38
f 87/99/99 88/101/101 101/41/41 99/39/39
f 88/101/101 89/102/102 102/42/42 101/41/41
f 89/102/102 90/103/103 103/43/43 102/42/42
f 90/103/103 91/104/104 104/44/44 103/43/43
f 91/104/104 92/105/105 105/45/45 104/44/44
f 92/105/105 93/106/106 106/46/46 105/45/45
f 93/106/106 94/107/107 107/47/47 106/46/46
f 94/107/107 95/108/108 108/48/48 107/47/47
f 95/108/108 96/109/109 109/49/49 108/48/48
f 96/109/109 97/139/110 110/50/50 109/49/49
f 97/110/110 86/100/100 98/38/38 110/158/50
f 111/111/111 112/112/112 133/113/113 134/114/114
f 112/112/112 111/111/111 114/115/115 113/138/116
f 113/116/116 114/136/115 116/117/117 115/118/118
f 115/118/118 116/117/117 118/119/119 117/120/120
f 117/120/120 118/119/119 120/121/121 119/122/122
f 119/122/122 120/121/121 122/123/123 121/124/124
f 121/124/124 122/123/123 124/125/125 123/126/126
f 123/126/126 124/125/125 126/127/127 125/128/128
f 125/128/128 126/127/127 128/129/129 127/130/130
f 127/130/130 128/129/129 130/131/131 129/132/132
f 129/132/132 130/131/131 132/133/133 131/134/134
f 131/134/134 132/133/133 134/114/114 133/113/113
f 74/88/88 75/87/87 133/113/113 112/112/112
f 75/87/87 76/89/89 131/134/134 133/113/113
f 76/89/89 77/90/90 129/132/132 131/134/134
f 77/90/90 78/91/91 127/130/130 129/132/132
f 78/91/91 79/92/92 125/128/128 127/130/130
f 79/92/92 80/93/93 123/126/126 125/128/128
f 80/93/93 81/94/94 121/124/124 123/126/126
f 81/94/94 82/95/95 119/122/122 121/124/124
f 82/95/95 83/96/96 117/120/120 119/122/122
f 83/96/96 84/97/97 115/118/118 117/120/120
f 84/97/97 85/137/98 113/116/116 115/118/118
f 85/98/98 74/88/88 112/112/112 113/138/116
f 114/115/115 111/111/111 38/51/51 49/135/73
f 116/117/117 114/136/115 49/73/73 48/71/71
f 118/119/119 116/117/117 48/71/71 47/69/69
f 120/121/121 118/119/119 47/69/69 46/67/67
f 122/123/123 120/121/121 46/67/67 45/65/65
f 124/125/125 122/123/123 45/65/65 44/63/63
f 126/127/127 124/125/125 44/63/63 43/61/61
f 128/129/129 126/127/127 43/61/61 42/59/59
f 130/131/131 128/129/129 42/59/59 41/57/57
f 132/133/133 130/131/131 41/57/57 40/55/55
f 134/114/114 132/133/133 40/55/55 39/52/52
f 111/111/111 134/114/114 39/52/52 38/51/51
